<svg xmlns="http://www.w3.org/2000/svg" width="128" height="128" viewBox="0 0 128 128">
  <!-- 背景 -->
  <rect width="128" height="128" fill="#1a1a2e"/>
  
  <!-- 外边框 -->
  <rect x="8" y="8" width="112" height="112" rx="8" ry="8" fill="none" stroke="#0f3460" stroke-width="4"/>
  
  <!-- 中心逻辑符号 - 电路板风格 -->
  <g transform="translate(64, 64)">
    <!-- 中心圆 -->
    <circle r="24" fill="#16213e" stroke="#00d4ff" stroke-width="2"/>
    
    <!-- 逻辑门符号 - 与门 -->
    <path d="M -16 -12 L -16 12 L 8 0 Z" fill="#00d4ff" opacity="0.8"/>
    <rect x="8" y="-8" width="8" height="16" fill="#00d4ff" opacity="0.8"/>
    
    <!-- 逻辑门符号 - 或门 -->
    <path d="M -16 12 A 12 12 0 0 0 0 0 A 12 12 0 0 0 -16 -12" fill="#00d4ff" opacity="0.8"/>
    <rect x="0" y="-8" width="8" height="16" fill="#00d4ff" opacity="0.8"/>
    
    <!-- 连接线路 -->
    <path d="M 24 0 L 32 0" stroke="#00d4ff" stroke-width="2" stroke-linecap="round"/>
    <path d="M -24 0 L -32 0" stroke="#00d4ff" stroke-width="2" stroke-linecap="round"/>
    <path d="M 0 24 L 0 32" stroke="#00d4ff" stroke-width="2" stroke-linecap="round"/>
    <path d="M 0 -24 L 0 -32" stroke="#00d4ff" stroke-width="2" stroke-linecap="round"/>
  </g>
  
  <!-- 周围功能元素 -->
  
  <!-- 字符串处理 - 右上角 -->
  <g transform="translate(96, 32)">
    <rect x="-16" y="-12" width="32" height="24" rx="4" ry="4" fill="#16213e" stroke="#7b2cbf" stroke-width="2"/>
    <text x="0" y="5" font-family="monospace" font-size="12" fill="#e0aaff" text-anchor="middle">"AB"</text>
    <path d="M 16 -4 L 24 -4 L 24 4 L 16 4" fill="#7b2cbf"/>
  </g>
  
  <!-- 弹药创建 - 右下角 -->
  <g transform="translate(96, 96)">
    <circle r="12" fill="#16213e" stroke="#ff6b6b" stroke-width="2"/>
    <rect x="-3" y="-10" width="6" height="20" fill="#ff6b6b"/>
    <rect x="-10" y="-3" width="20" height="6" fill="#ff6b6b"/>
  </g>
  
  <!-- 嵌套逻辑 - 左下角 -->
  <g transform="translate(32, 96)">
    <rect x="-16" y="-16" width="32" height="32" rx="4" ry="4" fill="#16213e" stroke="#4ecdc4" stroke-width="2"/>
    <rect x="-8" y="-8" width="16" height="16" rx="2" ry="2" fill="#16213e" stroke="#4ecdc4" stroke-width="2"/>
    <rect x="-3" y="-3" width="6" height="6" rx="1" ry="1" fill="#4ecdc4"/>
  </g>
  
  <!-- 函数定义 - 左上角 -->
  <g transform="translate(32, 32)">
    <path d="M -16 -12 L 16 -12 L 16 12 L -16 12 Z" fill="#16213e" stroke="#f9ca24" stroke-width="2"/>
    <text x="0" y="5" font-family="monospace" font-size="10" fill="#f9ca24" text-anchor="middle">f(x)</text>
  </g>
  
  <!-- 连接线 -->
  <path d="M 64 32 L 80 32" stroke="#00d4ff" stroke-width="1" stroke-dasharray="4,4"/>
  <path d="M 64 96 L 80 96" stroke="#00d4ff" stroke-width="1" stroke-dasharray="4,4"/>
  <path d="M 32 64 L 48 64" stroke="#00d4ff" stroke-width="1" stroke-dasharray="4,4"/>
  <path d="M 96 64 L 80 64" stroke="#00d4ff" stroke-width="1" stroke-dasharray="4,4"/>
  
  <!-- 标题文字 -->
  <text x="64" y="116" font-family="Arial, sans-serif" font-size="10" fill="#00d4ff" text-anchor="middle" font-weight="bold">LOGIC EXTEND</text>
</svg>